<?xml version="1.0" encoding="UTF-8"?>
<svg width="100px" height="100px" viewBox="0 0 100 100" version="1.1" xmlns="http://www.w3.org/2000/svg" xmlns:xlink="http://www.w3.org/1999/xlink">
    <!-- Generator: Sketch 49.2 (51160) - http://www.bohemiancoding.com/sketch -->
    <title>icon-mask</title>
    <desc>Created with Sketch.</desc>
    <defs></defs>
    <g id="icon-mask" stroke="none" stroke-width="1" fill="none" fill-rule="evenodd">
        <path d="M50,100 C22.3857625,100 0,77.6142375 0,50 C0,22.3857625 22.3857625,0 50,0 C77.6142375,0 100,22.3857625 100,50 C100,77.6142375 77.6142375,100 50,100 Z M29.6734694,65.8367347 C38.3296875,65.8367347 45.3469388,58.7098389 45.3469388,49.9183673 C45.3469388,41.1268958 38.3296875,34 29.6734694,34 C21.0172513,34 14,41.1268958 14,49.9183673 C14,58.7098389 21.0172513,65.8367347 29.6734694,65.8367347 Z M29.6541433,62.8140114 C22.6523195,62.8140114 16.9762198,57.0492227 16.9762198,49.9379954 C16.9762198,42.8267681 22.6523195,37.0619794 29.6541433,37.0619794 C36.6559671,37.0619794 42.3320667,42.8267681 42.3320667,49.9379954 C42.3320667,57.0492227 36.6559671,62.8140114 29.6541433,62.8140114 Z M78.4258928,62.854956 C78.445496,62.8874041 78.6676657,62.9068729 78.9225073,62.8938937 L79.3864498,62.8744249 L83.20254,53.1789478 C85.3000828,47.8444885 86.9990271,43.4380434 86.9794239,43.3926161 C86.9598207,43.32772 86.8291327,43.3082512 86.4828094,43.3212304 L86.0188669,43.3406992 L85.352358,45.125342 C81.6800246,54.9181632 81.6277494,55.0674242 81.5428022,54.8792255 C81.4970613,54.7753918 81.0461877,53.5877932 80.5365044,52.2314647 C80.0333555,50.8751363 79.373381,49.1099624 79.0727985,48.3052508 C78.7722161,47.5005392 78.2429296,46.0858042 77.8966063,45.15779 C77.5502831,44.2362654 77.2366318,43.4380434 77.1974254,43.3926161 C77.1190126,43.3017616 76.2630061,43.2693135 76.2041964,43.3601681 C76.1911276,43.3861265 77.2954414,46.2740029 78.6611313,49.765413 C80.0268211,53.2633127 81.1442037,56.1706579 81.1442037,56.2225748 C81.1442037,56.2744917 80.5234356,57.7800811 79.7654451,59.5582342 C79.0139889,61.3428769 78.4062896,62.8289976 78.4258928,62.854956 Z M50.3566284,56.4296881 C50.4011166,56.5204997 50.477382,56.5399593 50.7443112,56.5269862 L51.0684394,56.5075266 L52.847967,50.5918042 C53.8267071,47.3355623 54.6465609,44.6955415 54.6719827,44.7214876 C54.6910491,44.7474338 55.4918365,47.367995 56.4451548,50.5399119 C57.3984731,53.7183154 58.205616,56.3648228 58.2373933,56.4296881 C58.2818815,56.5204997 58.3581469,56.5399593 58.6250761,56.5269862 L58.9555597,56.5075266 L60.7477982,49.9561235 C61.7328938,46.3560951 62.5146148,43.3787743 62.489193,43.3528282 C62.4637712,43.326882 62.2413303,43.3074224 61.9998229,43.3203955 L61.567652,43.3398551 L60.1249636,48.9377371 C59.3305316,52.012356 58.6632088,54.6134576 58.637787,54.7107556 L58.5869433,54.8858922 L58.5424551,54.7237287 C58.5170333,54.6329172 58.0721514,53.1475001 57.5573595,51.4155945 C57.0489231,49.6836889 56.3116902,47.2058316 55.9240074,45.9020375 C55.5426801,44.5982434 55.1994855,43.4825589 55.1677082,43.4176936 C55.1105091,43.3203955 55.0342437,43.3074224 54.6211391,43.3203955 L54.1381244,43.3398551 L53.8076407,44.4749992 C53.6233325,45.0977068 53.0068533,47.1733989 52.4412178,49.0804409 C51.8755823,50.987483 51.2654585,53.0566885 51.0875058,53.6664231 C50.9031976,54.2826442 50.7443112,54.7885941 50.7252448,54.7885941 C50.7061784,54.7885941 50.0325002,52.2393848 49.2380682,49.1323332 C48.4372808,46.0187952 47.7572471,43.4306666 47.7191143,43.3917474 C47.6492043,43.2879628 46.8738387,43.2749897 46.8166396,43.3722878 C46.7785069,43.4306666 50.2358747,56.1961728 50.3566284,56.4296881 Z M67.9387427,56.4632559 C69.4352293,56.6753665 71.4871803,56.3732696 72.820295,55.7433655 L73.4149687,55.4605514 L73.5652709,55.8526345 C73.7547823,56.366842 73.8005264,56.4246903 74.0423168,56.39898 L74.244898,56.3796972 L74.244898,51.3661745 C74.244898,46.6611763 74.2383631,46.3269414 74.1207353,45.9027203 C73.7025033,44.3536703 72.6699929,43.6016419 70.6507162,43.3573934 C69.4352293,43.2095587 67.134953,43.3959589 66.0109543,43.7301938 L65.6188617,43.8523181 L65.5992571,44.1929805 C65.5861874,44.3858083 65.5992571,44.5593533 65.6319315,44.5850637 C65.658071,44.6172016 65.9586753,44.5657809 66.2984888,44.4822222 C67.2068366,44.2508288 68.2720214,44.1351322 69.4025549,44.1351322 C71.0166693,44.1351322 71.9119473,44.3472427 72.506621,44.880733 C73.0555505,45.3628025 73.2319922,45.9155755 73.2777363,47.2910804 L73.3169456,48.3002125 L72.8006904,48.3387781 C72.5131558,48.3580609 71.5067849,48.4223368 70.5526931,48.4737576 C68.5334164,48.5894542 67.7230918,48.6987233 66.9781159,48.9493995 C66.2592796,49.193648 65.7822336,49.4828897 65.3509318,49.9392488 C64.6647699,50.6655668 64.4425841,51.3083262 64.4491189,52.5552792 C64.4491189,53.3265904 64.4687236,53.4808527 64.6255606,53.9243566 C64.7235837,54.2007431 64.9000254,54.5799711 65.024188,54.7599437 C65.2855831,55.1584545 65.8345126,55.6790895 66.239675,55.9104829 C66.6252326,56.1354486 67.4159526,56.3925524 67.9387427,56.4632559 Z M70.9839949,55.4862617 C70.1279261,55.6983723 68.5595559,55.7562206 67.81458,55.6019584 C66.1351169,55.261296 65.3836062,54.3100122 65.3836062,52.5231413 C65.3770713,51.0190845 65.9586753,50.1385042 67.2591156,49.6950003 C67.8472544,49.4957449 68.4353933,49.4250414 71.0950878,49.2514963 L73.2973409,49.1100893 L73.2973409,51.848244 L73.2973409,54.5863987 L72.8268299,54.8242196 C72.1472028,55.1520269 71.7289707,55.3062891 70.9839949,55.4862617 Z M28.1425456,58.3944718 C28.9308977,58.5171801 30.9238519,58.5236385 31.8951017,58.4009301 C33.0681697,58.2523884 34.4493626,57.8778049 35.4458397,57.438638 L35.6791919,57.3353046 L35.6791919,55.6561373 C35.6791919,54.7390535 35.6539647,53.9705115 35.6287374,53.9511365 C35.6035101,53.9382198 35.2692488,54.0480116 34.884533,54.20947 C34.0457263,54.5517618 32.9924879,54.8423869 32.0527722,54.9909286 C31.163511,55.1265537 29.2399318,55.1459287 28.7416932,55.016762 C27.2469776,54.6357201 26.2883414,53.3763446 26.061296,51.4969688 L26.0171483,51.135302 L31.2707268,51.1223853 L36.5306122,51.1030103 L36.5243054,49.1009261 C36.5243054,46.9955085 36.4612373,46.2657166 36.1774305,45.0838411 C35.5530556,42.4682149 34.0646468,40.9827976 31.6049881,40.5177974 C29.921068,40.201339 27.7704434,40.395089 26.3387959,40.9957143 C25.6702733,41.2798811 25.1720348,41.6157146 24.6170349,42.1582148 C23.784535,42.9719652 23.3052169,43.7792572 22.8952738,45.0580077 C22.201524,47.234467 22.132149,50.8317602 22.7439102,53.2730112 C23.4818078,56.2309292 25.2918643,57.9488466 28.1425456,58.3944718 Z M32.8789652,47.311967 L32.9231129,47.9707173 L29.4480567,47.9707173 L25.9730005,47.9707173 L26.0108414,47.6348838 C26.0739096,47.0342586 26.3387959,46.0784248 26.5658413,45.6005079 C27.026239,44.6446742 27.852432,44.0117573 28.8741364,43.8373822 C29.5489658,43.7211321 30.6968065,43.7792572 31.1445905,43.9600906 C32.2672039,44.3992574 32.746522,45.3227995 32.8789652,47.311967 Z" id="Combined-Shape" fill="#D5D5D5"></path>
    </g>
</svg>