<?xml version="1.0" encoding="UTF-8"?>
<svg width="100px" height="100px" viewBox="0 0 100 100" version="1.1" xmlns="http://www.w3.org/2000/svg" xmlns:xlink="http://www.w3.org/1999/xlink">
    <!-- Generator: Sketch 46.2 (44496) - http://www.bohemiancoding.com/sketch -->
    <title>icon-mask</title>
    <desc>Created with Sketch.</desc>
    <defs></defs>
    <g id="Icons" stroke="none" stroke-width="1" fill="none" fill-rule="evenodd">
        <g id="icon-mask" fill-rule="nonzero" fill="#D5D5D5">
            <path d="M88.2964021,76.2413746 C87.4160603,77.5832047 86.4043033,78.9044345 85.3020399,80.1687794 C82.8361606,82.996642 79.9323052,85.5735551 76.6678415,87.8246088 C72.6427459,90.5986295 68.3694375,92.7958414 63.9662062,94.3389927 C60.1834607,95.6705228 56.8664431,96.3669542 53.8297242,96.4690193 L53.7596422,96.4720627 C53.4355381,96.4851721 53.0617917,96.4968766 52.6719802,96.4968766 C51.2514503,96.4968766 50.2221659,96.307026 49.5462178,95.9303677 L49.2542142,95.7318555 C49.1622442,95.6574134 49.08195,95.5815667 49.0104048,95.5040815 C48.9855908,95.4603057 48.9622252,95.4151254 48.9432487,95.37135 C48.9096709,95.1742424 48.9330216,94.9696438 49.0177055,94.7039465 C49.3213699,93.9754442 49.7900273,93.3302795 50.3477286,92.6907332 L50.3856811,92.648362 L50.3813061,92.648362 C50.5681866,92.430888 50.7667429,92.2162234 50.9755113,91.9900879 C53.1800529,91.4163219 55.4123204,90.7315954 57.7905898,89.9007936 C60.0345472,90.3942649 62.268274,90.5227829 64.335578,90.2861134 C66.9386804,89.9855361 69.3957958,89.230581 71.6426647,88.0350598 C74.2778967,86.6407924 76.6328005,84.6828255 78.4460679,82.3791006 C79.6709825,80.8270535 80.6549842,79.1116085 81.3791268,77.266241 C85.3896352,74.1565287 88.6526357,71.0337069 91.3491859,67.7093296 C91.8309673,67.1180067 92.2820965,66.5355792 92.7127869,65.9604088 C91.9828068,69.4467794 90.5038702,72.9010792 88.2964021,76.2413746 M73.2982551,82.7089398 C74.1070812,82.2360688 74.9217301,81.7337016 75.7407687,81.2140118 C74.5479837,82.6754643 73.1376663,83.9660277 71.5842733,85.0143031 C69.5782875,86.3589423 67.4219254,87.2976616 65.1662923,87.8028378 C64.2056413,88.018907 63.2260139,88.1488298 62.2419973,88.2043101 C66.0481119,86.6407924 69.7607788,84.7968295 73.2982551,82.7089398 M100.000897,46.0785221 C99.9775315,41.8870585 98.9132206,37.7014473 96.9320633,33.9755981 C95.1290084,30.5812266 92.5842977,27.4087769 89.3636394,24.5458001 C88.6000814,20.6490617 86.5955588,16.8808413 83.5676039,13.6470585 C81.1265535,11.0411175 77.9759622,8.69783076 74.2034404,6.6801696 C71.2499422,5.10635156 68.0380327,3.79823124 64.6567706,2.80684063 C61.8259087,1.97182527 59.0622209,1.4200642 56.4474285,1.15998535 C54.0093041,0.914888351 51.9113483,0.951407166 49.991495,1.26954179 C48.1621776,1.56309645 46.354748,2.16167632 44.7517123,2.99224376 L44.4465846,3.148619 C42.2756208,2.92505858 40.1090462,2.87847374 38.0621815,3.00699166 L37.4168848,3.044915 C35.340817,3.16758048 31.1828583,3.77201279 31.3872521,5.83930218 C31.3872521,5.83930218 31.4135292,6.98683368 34.0107938,7.81318754 C35.4021351,7.00134762 36.2036601,6.49757591 37.60814,5.60122781 C37.3278267,5.55019505 37.0460498,5.50641965 36.7642879,5.45093897 C37.9468458,5.25827926 39.0870767,5.15878884 40.0375009,5.09605158 C40.3076021,5.0770901 40.573314,5.05953276 40.8317252,5.04806221 C40.6039658,5.17938919 40.3630824,5.32686897 40.1294854,5.46685744 L38.8914468,6.25833136 C36.723409,7.64370289 35.9919657,8.10791277 33.6939908,9.43078099 L33.6896166,9.43078099 C32.2924377,10.2775012 30.8937957,11.1125166 29.477624,11.9112471 C26.7752508,13.42818 23.9400143,14.9011031 21.0522089,16.2867089 C18.7849004,17.3684602 16.3146465,18.4811117 13.2823169,19.7730796 L13.0268175,19.8767836 C12.3216659,20.1789998 11.6135883,20.4753635 10.91426,20.7892841 L10.759509,20.8578738 C9.99887712,21.1907564 9.14333467,21.5660098 8.64548866,22.4230304 L8.48489984,23.0082669 L8.51117697,23.4827767 L8.56956911,23.6929938 C8.61482267,23.8114457 8.66009043,23.9280248 8.70827003,24.0406242 L9.08494292,24.5106862 L9.56526112,24.8304593 C9.61344072,24.8566777 9.66454635,24.881492 9.75214164,24.9034969 C10.226622,25.0334193 10.740533,25.0917091 11.3770799,25.0917091 C11.7435257,25.0917091 12.1128829,25.0668951 12.4808065,25.0479333 L14.0852909,24.9748957 C15.0780714,24.9252674 16.0664478,24.881492 17.0548537,24.8435687 C21.8186929,24.653718 26.2920062,24.650909 30.4791538,24.8363117 C34.5597462,25.012819 38.6665992,25.3632585 42.6800336,25.8829486 C44.7093701,26.1399845 46.7387216,26.4625667 48.7403182,26.8291589 C50.0279992,25.7326598 51.0412045,24.7529741 51.8193642,23.9383251 C47.6395031,23.1091622 43.4143884,22.472659 39.2447394,22.044734 C35.0035747,21.6170433 30.5477727,21.3658595 25.9985544,21.3017177 C25.456903,21.2944604 24.9152667,21.2914173 24.3721529,21.2914173 C22.150098,21.2914173 19.9134413,21.3513456 17.7103625,21.4185307 C19.8827895,20.4081787 21.8464332,19.4329405 23.6699131,18.4635548 C26.4496694,16.9831407 29.2352777,15.3873178 31.9508059,13.7142441 C34.0326967,12.4309377 36.1846845,10.9856376 38.7206309,9.16929761 L39.0870767,8.90945271 C42.0449495,9.45419077 45.5254823,10.1052079 49.0760972,10.8440102 C51.6091322,11.3725958 54.1100379,11.9681323 56.5452505,12.6177449 C55.4707271,10.073137 52.4719607,8.62338899 50.7302386,7.97377675 C48.3037896,7.4889669 45.6802479,7.001348 42.608488,6.46410088 C43.4070869,5.93551524 44.1312292,5.4888627 44.8320061,5.09183838 C47.2482426,5.38656361 49.350573,5.88307796 51.2631257,6.61017575 C52.7040948,7.16193682 53.9056438,7.81318793 54.9159376,8.55760871 C55.1130306,8.70227906 55.3042858,8.85116337 55.4838511,9.00145221 C55.5013789,9.0131571 55.5145175,9.02205255 55.5291192,9.03211857 C57.3277849,10.5242375 58.2913622,12.3244246 58.3614297,14.3231243 C58.4665528,15.9348657 58.0811306,17.6854246 57.2036857,19.4739072 C56.7087657,20.4798118 56.0678441,21.4899299 55.3042862,22.5206484 C55.096966,22.83176 53.8238868,24.6640184 50.9550724,27.2582545 L50.9638217,27.2582545 C48.1548769,29.8293152 44.8028033,32.2470441 40.7528792,34.6310632 C39.3557004,35.461865 37.9439198,36.2355476 36.5555049,36.9539839 C34.8531985,37.8327751 33.102712,38.6460195 31.5799709,39.3438555 L31.5770445,39.3438555 C29.223602,40.4345021 25.2860871,42.0972759 20.3324556,43.5732424 C17.735191,44.3747823 15.229896,45.020181 12.7684059,45.5077999 C10.8033136,45.8961627 8.49803802,46.300444 6.1445825,46.3779295 C8.76812422,45.1821743 11.7055578,44.5412236 14.7451881,43.9939104 C20.5894032,42.6228185 25.4919437,40.7484232 28.8031238,39.2956321 C25.7576556,39.2897797 22.6114536,39.438664 19.4185206,39.7642896 C14.1378444,40.2928752 9.90251716,41.1351475 6.10224039,42.4083879 C3.9517158,43.1324423 0.999695374,44.3033836 0.204007875,46.1749699 C-0.0908926278,46.8685922 -0.0660787041,47.5912421 0.278464605,48.3181059 C0.809888436,49.4335665 2.06982954,50.1358504 3.92399042,50.3491105 C5.41167599,50.5228087 6.98405998,50.4993993 9.15354643,50.2688159 C13.0647842,49.8525957 17.3001256,48.9035764 22.0917051,47.3604247 C26.270103,46.0129761 30.1915387,44.4815293 33.7553086,42.8112647 C37.8271352,42.9835584 41.8960353,43.4477679 45.8481374,44.1821226 C50.065951,44.9661052 53.7859335,45.9706053 57.2270506,47.2525071 C61.1864534,48.7226212 64.5107682,50.3416191 67.3284915,52.1638115 C68.3635992,51.4236043 69.2614838,50.7285778 69.9973014,50.1299979 C69.9199186,50.0759222 69.8469247,50.0162279 69.7666159,49.9591088 C66.2087,47.5940511 62.1573276,45.5880949 57.7351092,44.0025719 C54.061858,42.6768943 50.1433341,41.6375143 45.7503153,40.8170129 C43.690327,40.4314591 41.5996574,40.121986 39.5163034,39.8928075 C42.9749338,37.9978118 46.030629,36.0325879 48.8177006,33.9201182 C51.3010781,32.038232 53.3990339,30.1708593 55.2327406,28.2203833 C60.2535427,29.4919852 64.3647811,30.8338153 68.1548308,32.4221469 C72.7186509,34.336104 76.5933844,36.466365 80.0038501,38.9234217 L80.2783259,39.1263818 C81.0155921,38.0357351 81.6024966,36.9158266 82.0302751,35.9946646 C79.0125327,33.8529334 75.6152206,31.914162 71.8864887,30.219083 C67.753344,28.3402397 63.2873313,26.773679 58.238793,25.424592 C58.0563017,25.3721547 57.8738105,25.3267404 57.692782,25.2815601 C59.9235862,22.2725084 61.2010551,19.3219803 61.4857397,16.5086316 C61.5660343,15.6691683 61.5601964,14.8325145 61.4550879,14.0120131 C65.7415207,15.3173243 69.8323233,16.8911424 73.626748,18.694139 C77.4153348,20.4898786 80.6360078,22.4038357 83.4683329,24.5399488 C83.526725,24.5837246 83.5822053,24.6230524 83.6376856,24.6609758 C82.9369087,21.5571158 81.3265722,19.3030188 80.4593544,18.2650437 C78.6913405,17.2633532 76.7934039,16.3087153 74.7290263,15.3786575 C71.1710958,13.7669161 67.3474683,12.3550918 63.0493601,11.051185 C62.1281248,10.7723783 61.206893,10.5111288 60.2812831,10.2512839 L60.1601099,10.2192115 C58.8300868,7.94147112 56.7554821,6.52683776 55.2385934,5.73559818 C53.4355385,4.79828334 51.4295527,4.12666623 49.1301147,3.69452762 C50.0834795,3.52668184 51.0879354,3.43913026 52.1171907,3.42742576 L52.3551772,3.42297784 C53.2983004,3.42297784 54.2983671,3.48431058 55.3203508,3.59971908 C55.5466325,3.63038545 55.768554,3.65519937 55.9962989,3.68446122 C58.4227479,4.01289582 60.9382551,4.60421872 63.6858925,5.50641927 C66.8817519,6.54884263 69.8994797,7.86702897 72.6427463,9.42492855 C76.0196192,11.3316287 78.8271154,13.5581024 80.9951532,16.0282686 C81.7718497,16.9131461 82.4390634,17.8139421 83.0201151,18.7203563 C83.1369136,18.895693 83.2478745,19.0752437 83.3661362,19.2664988 C83.3909501,19.3088701 83.4172272,19.3584979 83.4435044,19.4008692 C84.4581728,21.1060142 85.4553277,23.4493009 85.6918364,26.3150869 C85.6932996,26.3181303 85.7035263,26.3225778 85.707901,26.3253869 C86.0232557,29.3021334 85.4071481,32.1550442 84.5705962,34.4821785 L84.5749709,34.4821785 C84.5224166,34.6310628 83.4230647,37.8751456 81.3002951,40.7615315 C79.214015,43.8639868 76.5087155,46.8451813 73.080722,49.8350376 C72.2850491,50.5607309 70.1374509,52.4339556 67.1197231,54.4820492 L67.1138852,54.4733877 C64.2056406,56.5055628 61.1119963,58.4066449 57.8650462,60.1366038 C55.4809392,61.3906484 52.8719989,62.6360318 49.6615527,64.0274897 L49.6586267,64.0244464 C48.4103613,64.5748029 46.5080354,65.357381 44.2932812,66.1195927 C40.7864712,67.3867466 37.2592071,68.4626454 33.7772111,69.3110042 C28.677576,70.5505352 24.088927,71.2614801 19.7513885,71.4803587 C18.0344803,71.5723578 16.3438492,71.5606533 14.721837,71.4599923 C12.3216651,71.2891031 9.89375325,70.9578595 8.42649237,69.7007715 C8.34473494,69.6043245 8.26881501,69.5095163 8.20165897,69.4058123 C8.18852041,69.3692935 8.17538184,69.3313702 8.16661794,69.2948514 C8.16661794,69.2438186 8.16954397,69.1883383 8.17247039,69.1415195 C8.43088161,68.3079087 9.23531843,67.63793 9.91272969,67.1517157 C10.9025838,66.4332794 12.0895314,65.7925626 13.5392645,65.1881303 C16.8898749,63.8376387 20.6813731,62.9965369 25.1284094,62.6257311 C29.2557162,62.2797391 33.4414171,62.4330714 37.4416984,63.071213 C39.5527927,63.4024567 41.5733799,63.8945235 43.5078204,64.5062128 C45.0071963,63.999632 46.378098,63.4651944 47.503727,63.0040279 C45.0013584,61.9147857 42.2449533,61.0563609 39.2666557,60.4432671 C35.1495756,59.5935039 30.7872086,59.2372119 26.413179,59.3963962 C21.8143033,59.5583896 17.5964893,60.244521 13.8721324,61.4316143 C10.7974757,62.415514 7.39138504,63.7704531 5.39123673,66.3632848 C4.48022856,67.5414826 4.11962027,68.8568603 4.30650079,70.2700891 C4.54154634,72.0206484 6.11830499,73.2133602 6.78404089,73.6412853 C8.70243139,74.8763683 11.0120816,75.3450258 12.5859142,75.5887182 C14.3247249,75.8619065 16.1876351,75.9946384 18.2739151,75.9946384 C18.5907181,75.9946384 18.9119107,75.9901905 19.2301768,75.9829335 C23.5063972,75.9070868 28.0249641,75.3157639 33.4472546,74.1347566 C37.9220312,73.1520275 42.6522925,71.7256892 47.5008156,69.8920263 C48.8600273,69.3723365 50.2134158,68.8306415 51.5259112,68.2713895 C53.6691347,69.7621039 55.2721704,71.3914022 56.2955882,73.1244042 C57.2883688,74.8033303 57.7730762,76.5274372 57.7351088,78.2414777 C57.6986191,79.7921203 57.2460267,81.3818564 56.3788085,82.9704224 C56.178804,83.3398237 55.9422806,83.7106296 55.6940965,84.095949 C56.6722607,83.7382525 57.6927812,83.3412282 58.7249629,82.9104942 C58.8797142,82.601021 59.0242527,82.2885049 59.1512782,81.9804363 C59.9308862,80.0547742 60.1907606,78.0240037 59.9119101,76.1128556 C59.5921807,73.9053437 58.6008634,71.7301368 57.0474704,69.8175842 C56.2532607,68.839303 55.3247243,67.9094791 54.2837791,67.0466068 C58.9804627,64.8697613 63.1281908,62.5936598 66.9459807,60.1014888 C68.8672827,58.8429963 70.7301929,57.520362 72.4850682,56.1523131 C75.4750557,58.9628527 77.5569614,62.0447078 78.6855023,65.3107954 C79.2840821,67.0552683 79.5848351,68.8744173 79.590673,70.6687523 C80.7133905,69.7152851 81.7178319,68.7648612 82.4667884,68.0188015 C82.1120326,65.4348654 81.2433516,62.8535047 79.8753759,60.4257098 C78.6665262,58.2809352 77.009473,56.171275 74.9465583,54.1493999 C78.9453767,50.7402804 82.0711537,47.3210949 84.5005142,43.7076112 C84.6421269,43.4959897 84.7764532,43.288582 84.9122281,43.0797695 C87.8993041,46.043641 90.0950823,49.2043861 91.4265537,52.4674303 L91.4586833,52.5505339 C91.7243952,53.1814187 91.9448393,53.8368837 92.1506963,54.4895394 C93.1171852,52.0907724 93.5610137,50.1082251 93.7668707,48.783952 C92.5478085,46.4975501 91.0279933,44.323748 89.2074252,42.294382 C88.4730559,41.4710715 87.6554805,40.6491652 86.7751387,39.8342819 C88.4409413,36.5422098 89.4132822,33.3201319 89.6541656,30.2352335 C90.4366999,31.1402431 91.1111994,32.0178637 91.7010299,32.8966548 C93.921622,36.2179888 95.2808483,39.7642876 95.6356183,43.1514022 C95.7670186,44.4070857 95.7889065,45.6711962 95.7173758,46.9355411 L95.7261397,46.9355411 C95.7261397,47.0364361 95.7319775,48.3255949 95.2779215,50.4277643 C95.2107655,50.7723517 95.1290081,51.1213866 95.042876,51.4673782 C95.0414128,51.4584827 95.0384867,51.4528642 95.031186,51.4395209 C94.612186,53.0704577 93.9362234,55.0616664 92.8427235,57.3101446 C92.8470982,57.3174016 92.8470982,57.3202106 92.8470982,57.3260631 C92.750739,57.5100613 92.6485419,57.699912 92.5478085,57.8853151 C92.4485232,58.0852318 92.3536269,58.2764869 92.2485187,58.4735946 L92.2426808,58.469381 C90.331591,61.9616041 87.6759197,65.4100511 84.3092594,68.745899 C83.8712683,69.173824 83.4070151,69.6160286 82.917918,70.0715766 C81.6900919,71.2425179 80.063705,72.6761127 78.3497087,73.8791249 C75.1553271,76.3099632 71.6996082,78.5525893 68.0336581,80.5220267 C65.2159347,82.0373211 62.2726636,83.3981127 59.2490868,84.6186818 C55.9860863,85.9822828 52.9157897,86.950264 50.5754877,87.5954283 C50.5813255,87.5954283 50.5813255,87.5954283 50.584237,87.5970668 C46.2554624,88.8349589 41.9777935,89.6496079 37.843186,90.0293096 C34.1071534,90.3664057 31.1492805,90.3153733 28.4001745,89.8832347 C26.6628271,89.6116849 25.275875,89.1650324 24.1823609,88.5268907 C23.8918351,88.3283786 23.6348721,88.1078615 23.4582187,87.9210539 C23.3896144,87.8203933 23.3326709,87.7239462 23.2874174,87.6232856 C23.2757274,87.5764668 23.2669781,87.5282431 23.2582142,87.4772108 C23.2655003,87.4100256 23.2771906,87.3531408 23.2874174,87.291808 C23.8772333,85.8610218 25.8029099,85.1107486 27.6118027,84.561797 C29.4294447,84.0112065 31.4938388,83.7455091 33.9188246,83.7455091 L34.2108137,83.7455091 C36.3613383,83.7630661 38.6417853,84.0360204 40.9821019,84.554306 C43.1851807,85.0391159 45.3006493,85.7282903 47.2730573,86.4041214 C47.379629,86.4392357 47.4876636,86.4816066 47.5942495,86.5181254 C48.4322642,86.3179744 49.5389171,86.042211 50.8295096,85.6697667 C50.6601569,85.596729 50.4849663,85.5281393 50.3141504,85.4551021 C49.4469322,85.0945966 48.5826404,84.7338567 47.711048,84.3864603 C45.2699975,83.4067745 43.2026936,82.7206431 41.2010824,82.2171057 C38.7308434,81.593712 36.292719,81.2315676 33.9626146,81.1423775 C31.4719359,81.0506124 29.0104443,81.2840049 26.7022424,81.841852 C24.2480534,82.4390273 22.4055974,83.3894512 21.220113,84.6638621 C20.3528948,85.596729 19.9090663,86.7517518 19.9689212,87.9123928 C20.0317026,89.110957 20.6156807,90.2629364 21.6230481,91.1403231 C24.3108344,93.5025716 28.468793,94.0381799 31.7872903,94.2397354 C35.99634,94.4981758 40.5966643,94.1566318 45.4919041,93.2235309 C46.1050858,93.105313 46.7387212,92.9842864 47.3840175,92.8440636 C46.8803336,93.5418995 46.4992715,94.2952157 46.4277412,95.141936 C46.3182434,96.4851706 47.0467603,97.7085492 48.4322638,98.5028318 C49.7491484,99.2605959 51.5040091,99.6299973 53.7946828,99.6299973 L53.7990721,99.6299973 C54.2604138,99.6299973 54.7159181,99.6124403 55.152446,99.587626 C58.7600043,99.4211847 62.5982301,98.572826 66.8948897,97.0020513 C71.0791255,95.4720091 75.1100731,93.3944197 78.8767575,90.823359 C82.2901346,88.4934157 85.4042362,85.7648092 88.1358125,82.7133861 C90.9812761,79.5336795 93.2120804,76.0414564 94.7683998,72.3373778 C96.3247192,68.642195 97.1014156,64.6260681 97.021121,60.7162203 C97.0094311,60.1583728 96.9758529,59.5862457 96.9218358,59.0211413 C98.994978,54.6456814 100.027174,50.2891811 100.000897,46.0785221" id="Shape"></path>
        </g>
    </g>
</svg>